
<svg width="163px" height="163px" viewBox="0 0 163 163" version="1.1" xmlns="http://www.w3.org/2000/svg" xmlns:xlink="http://www.w3.org/1999/xlink">
    <g id="页面-1" stroke="none" stroke-width="1" fill="none" fill-rule="evenodd">
        <g id="mantine" fill-rule="nonzero">
            <path d="M162.162,81.5 C162.162,36.489 125.861,0 81.082,0 C36.301,0 0,36.489 0,81.5 C0,126.51 36.301,163 81.081,163 C125.861,163 162.162,126.51 162.162,81.5 Z" id="路径" fill="#339AF0"></path>
            <g id="编组" transform="translate(56.233328, 40.544413)" fill="#FFFFFF">
                <path d="M9.7496721,2.50458653 C8.26405882,4.5230876 8.13169342,7.23500252 9.4136721,9.38858653 C9.82973024,10.0849568 10.3796542,10.6919804 11.0316721,11.1745865 C20.4756721,18.2105865 25.8976721,28.9685865 25.8976721,40.6945865 C25.8976721,52.4205865 20.4756721,63.1785865 11.0316721,70.2145865 C10.380411,70.6974313 9.83118581,71.3044339 9.4156721,72.0005865 C8.57248907,73.4114692 8.3229302,75.0990482 8.7216721,76.6935865 C8.9186721,77.4835865 9.2676721,78.2265865 9.7496721,78.8795865 C10.7213098,80.1988987 12.178955,81.0762658 13.7996262,81.3172829 C15.4202974,81.5583001 17.0701711,81.1430657 18.3836721,80.1635865 C21.292373,77.9951898 23.9569932,75.517331 26.3306721,72.7735865 L43.8236721,72.7735865 C47.2296721,72.7735865 49.9976721,70.0015865 49.9976721,66.5795865 C49.9976721,63.1575865 47.2356721,60.3855865 43.8236721,60.3855865 L34.1686721,60.3855865 C36.8675506,54.1727646 38.2535277,47.469279 38.2396721,40.6955865 C38.2541189,33.9212909 36.868477,27.2170994 34.1696721,21.0035865 L43.8296721,21.0035865 C47.2356721,21.0035865 50.0026721,18.2325865 50.0026721,14.8095865 C50.0026721,11.3875865 47.2406721,8.61658653 43.8296721,8.61658653 L26.3406721,8.61658653 C23.9658177,5.87011009 21.2994952,3.3898803 18.3886721,1.21958653 C17.076875,0.241426036 15.4292997,-0.173526851 13.8106721,0.0665865258 C12.1894527,0.310112521 10.7310883,1.18692937 9.7556721,2.50458653 L9.7496721,2.50458653 L9.7496721,2.50458653 Z" id="路径"></path>
                <path d="M0.00267210023,38.8465865 C-0.026814093,37.6139982 0.187980702,36.3877646 0.6346721,35.2385865 C1.07960371,34.0925275 1.74826919,33.0465266 2.6016721,32.1615865 C3.45149546,31.2804141 4.4696239,30.5788781 5.5956721,30.0985865 C7.86464252,29.1317777 10.4297017,29.1317777 12.6986721,30.0985865 C13.8250644,30.5787855 14.8435377,31.2803249 15.6936721,32.1615865 C16.547075,33.0465266 17.2157405,34.0925275 17.6606721,35.2385865 C18.106732,36.3878886 18.3208481,37.614128 18.2906721,38.8465865 C18.2352248,41.2546093 17.2475757,43.547174 15.5356721,45.2415865 C13.8351721,46.9243792 11.540053,47.8693014 9.1476721,47.8715865 C6.7545984,47.8698275 4.4586647,46.9248658 2.7576721,45.2415865 C1.04576847,43.547174 0.0581194129,41.2546093 0.00267210023,38.8465865 L0.00267210023,38.8465865 Z" id="路径"></path>
            </g>
        </g>
    </g>
</svg>